<mxfile host="Electron" modified="2023-08-07T14:42:36.437Z" agent="Mozilla/5.0 (Windows NT 10.0; Win64; x64) AppleWebKit/537.36 (KHTML, like Gecko) draw.io/21.6.5 Chrome/114.0.5735.243 Electron/25.3.1 Safari/537.36" etag="tEcIU3SIVOSRFJjoALSZ" version="21.6.5" type="device">
  <diagram name="Page-1" id="-agOn-JFPqKANNYPStp-">
    <mxGraphModel dx="880" dy="545" grid="1" gridSize="10" guides="1" tooltips="1" connect="1" arrows="1" fold="1" page="1" pageScale="1" pageWidth="1169" pageHeight="827" math="0" shadow="0">
      <root>
        <mxCell id="0" />
        <mxCell id="1" parent="0" />
        <mxCell id="4SHh40jdGUv13qN_f6i9-1" value="" style="fontStyle=1;align=center;verticalAlign=middle;childLayout=stackLayout;horizontal=1;horizontalStack=0;resizeParent=1;resizeParentMax=0;resizeLast=0;marginBottom=0;" vertex="1" parent="1">
          <mxGeometry x="290" y="40" width="330" height="280" as="geometry" />
        </mxCell>
        <mxCell id="4SHh40jdGUv13qN_f6i9-2" value="«component»&lt;br&gt;&lt;b&gt;Order&lt;/b&gt;" style="html=1;align=center;spacingLeft=4;verticalAlign=top;strokeColor=none;fillColor=none;whiteSpace=wrap;" vertex="1" parent="4SHh40jdGUv13qN_f6i9-1">
          <mxGeometry width="330" height="40" as="geometry" />
        </mxCell>
        <mxCell id="4SHh40jdGUv13qN_f6i9-3" value="" style="shape=module;jettyWidth=10;jettyHeight=4;" vertex="1" parent="4SHh40jdGUv13qN_f6i9-2">
          <mxGeometry x="1" width="16" height="20" relative="1" as="geometry">
            <mxPoint x="-25" y="9" as="offset" />
          </mxGeometry>
        </mxCell>
        <mxCell id="4SHh40jdGUv13qN_f6i9-4" value="" style="line;strokeWidth=1;fillColor=none;align=left;verticalAlign=middle;spacingTop=-1;spacingLeft=3;spacingRight=3;rotatable=0;labelPosition=right;points=[];portConstraint=eastwest;" vertex="1" parent="4SHh40jdGUv13qN_f6i9-1">
          <mxGeometry y="40" width="330" height="8" as="geometry" />
        </mxCell>
        <mxCell id="4SHh40jdGUv13qN_f6i9-5" value="packaged elements" style="html=1;align=center;spacingLeft=4;verticalAlign=top;strokeColor=none;fillColor=none;whiteSpace=wrap;" vertex="1" parent="4SHh40jdGUv13qN_f6i9-1">
          <mxGeometry y="48" width="330" height="25" as="geometry" />
        </mxCell>
        <mxCell id="4SHh40jdGUv13qN_f6i9-6" style="rounded=0;orthogonalLoop=1;jettySize=auto;html=1;verticalAlign=bottom;labelBackgroundColor=none;startArrow=halfCircle;startFill=0;startSize=2;endArrow=none;entryX=1;entryY=0.5;entryDx=0;entryDy=0;" edge="1" parent="4SHh40jdGUv13qN_f6i9-1" target="4SHh40jdGUv13qN_f6i9-8">
          <mxGeometry relative="1" as="geometry">
            <mxPoint x="360" y="177" as="sourcePoint" />
          </mxGeometry>
        </mxCell>
        <mxCell id="4SHh40jdGUv13qN_f6i9-7" value="OrderableItem" style="edgeLabel;html=1;align=center;verticalAlign=middle;resizable=0;points=[];" vertex="1" connectable="0" parent="4SHh40jdGUv13qN_f6i9-6">
          <mxGeometry x="-0.2532" y="2" relative="1" as="geometry">
            <mxPoint x="21" y="-17" as="offset" />
          </mxGeometry>
        </mxCell>
        <mxCell id="4SHh40jdGUv13qN_f6i9-8" value="&amp;nbsp;" style="html=1;align=left;spacingLeft=4;verticalAlign=top;strokeColor=none;fillColor=none;whiteSpace=wrap;" vertex="1" parent="4SHh40jdGUv13qN_f6i9-1">
          <mxGeometry y="73" width="330" height="207" as="geometry" />
        </mxCell>
        <mxCell id="4SHh40jdGUv13qN_f6i9-9" value="" style="group" vertex="1" connectable="0" parent="1">
          <mxGeometry x="405" y="135" width="100" height="170" as="geometry" />
        </mxCell>
        <mxCell id="4SHh40jdGUv13qN_f6i9-10" value="«Focus»&lt;br&gt;&lt;b&gt;OrderHeader&lt;/b&gt;" style="whiteSpace=wrap;html=1;" vertex="1" parent="4SHh40jdGUv13qN_f6i9-9">
          <mxGeometry y="-20" width="100" height="50" as="geometry" />
        </mxCell>
        <mxCell id="4SHh40jdGUv13qN_f6i9-11" value="&lt;b&gt;LineItem&lt;/b&gt;" style="whiteSpace=wrap;html=1;" vertex="1" parent="4SHh40jdGUv13qN_f6i9-9">
          <mxGeometry y="140" width="100" height="30" as="geometry" />
        </mxCell>
        <mxCell id="4SHh40jdGUv13qN_f6i9-12" style="edgeStyle=orthogonalEdgeStyle;rounded=0;orthogonalLoop=1;jettySize=auto;html=1;startArrow=diamondThin;startFill=1;startSize=12;endArrow=none;endFill=0;" edge="1" parent="4SHh40jdGUv13qN_f6i9-9" source="4SHh40jdGUv13qN_f6i9-10" target="4SHh40jdGUv13qN_f6i9-11">
          <mxGeometry relative="1" as="geometry" />
        </mxCell>
        <mxCell id="4SHh40jdGUv13qN_f6i9-13" value="1" style="edgeLabel;html=1;align=center;verticalAlign=middle;resizable=0;points=[];" vertex="1" connectable="0" parent="4SHh40jdGUv13qN_f6i9-12">
          <mxGeometry x="-0.5818" relative="1" as="geometry">
            <mxPoint x="10" as="offset" />
          </mxGeometry>
        </mxCell>
        <mxCell id="4SHh40jdGUv13qN_f6i9-14" value="order" style="edgeLabel;html=1;align=center;verticalAlign=middle;resizable=0;points=[];" vertex="1" connectable="0" parent="4SHh40jdGUv13qN_f6i9-12">
          <mxGeometry x="-0.5818" relative="1" as="geometry">
            <mxPoint x="-20" as="offset" />
          </mxGeometry>
        </mxCell>
        <mxCell id="4SHh40jdGUv13qN_f6i9-15" value="item" style="edgeLabel;html=1;align=center;verticalAlign=middle;resizable=0;points=[];" vertex="1" connectable="0" parent="4SHh40jdGUv13qN_f6i9-12">
          <mxGeometry x="0.5818" y="-2" relative="1" as="geometry">
            <mxPoint x="-18" y="5" as="offset" />
          </mxGeometry>
        </mxCell>
        <mxCell id="4SHh40jdGUv13qN_f6i9-16" value="1" style="edgeLabel;html=1;align=center;verticalAlign=middle;resizable=0;points=[];" vertex="1" connectable="0" parent="4SHh40jdGUv13qN_f6i9-12">
          <mxGeometry x="0.7273" y="1" relative="1" as="geometry">
            <mxPoint x="10" as="offset" />
          </mxGeometry>
        </mxCell>
        <mxCell id="4SHh40jdGUv13qN_f6i9-22" value="«component»&lt;br&gt;&lt;b&gt;Product&lt;/b&gt;" style="html=1;dropTarget=0;whiteSpace=wrap;" vertex="1" parent="1">
          <mxGeometry x="740" y="280" width="150" height="60" as="geometry" />
        </mxCell>
        <mxCell id="4SHh40jdGUv13qN_f6i9-23" value="" style="shape=module;jettyWidth=8;jettyHeight=4;" vertex="1" parent="4SHh40jdGUv13qN_f6i9-22">
          <mxGeometry x="1" width="20" height="20" relative="1" as="geometry">
            <mxPoint x="-27" y="7" as="offset" />
          </mxGeometry>
        </mxCell>
        <mxCell id="4SHh40jdGUv13qN_f6i9-24" value="/OrderableItem" style="html=1;verticalAlign=top;labelBackgroundColor=none;startArrow=oval;startFill=0;startSize=8;endArrow=none;rounded=0;" edge="1" parent="1" target="4SHh40jdGUv13qN_f6i9-22">
          <mxGeometry x="-1" y="3" relative="1" as="geometry">
            <mxPoint x="700" y="310" as="sourcePoint" />
            <mxPoint x="760" y="309.5" as="targetPoint" />
          </mxGeometry>
        </mxCell>
        <mxCell id="4SHh40jdGUv13qN_f6i9-25" value="" style="endArrow=openThin;startArrow=none;endFill=0;startFill=0;endSize=12;html=1;verticalAlign=bottom;dashed=1;labelBackgroundColor=none;rounded=0;" edge="1" parent="1">
          <mxGeometry width="160" relative="1" as="geometry">
            <mxPoint x="650" y="217" as="sourcePoint" />
            <mxPoint x="700" y="310" as="targetPoint" />
          </mxGeometry>
        </mxCell>
        <mxCell id="4SHh40jdGUv13qN_f6i9-28" value="«component»&lt;br&gt;&lt;b&gt;Account&lt;/b&gt;" style="html=1;dropTarget=0;whiteSpace=wrap;" vertex="1" parent="1">
          <mxGeometry y="40" width="150" height="60" as="geometry" />
        </mxCell>
        <mxCell id="4SHh40jdGUv13qN_f6i9-29" value="" style="shape=module;jettyWidth=8;jettyHeight=4;" vertex="1" parent="4SHh40jdGUv13qN_f6i9-28">
          <mxGeometry x="1" width="20" height="20" relative="1" as="geometry">
            <mxPoint x="-27" y="7" as="offset" />
          </mxGeometry>
        </mxCell>
        <mxCell id="4SHh40jdGUv13qN_f6i9-31" value="" style="group" vertex="1" connectable="0" parent="1">
          <mxGeometry x="145" y="64" width="60" height="10" as="geometry" />
        </mxCell>
        <mxCell id="4SHh40jdGUv13qN_f6i9-32" value="" style="html=1;rounded=0;align=left;verticalAlign=bottom;labelPosition=right;verticalLabelPosition=top;fontSize=11;direction=south;" vertex="1" parent="4SHh40jdGUv13qN_f6i9-31">
          <mxGeometry width="10" height="10" as="geometry" />
        </mxCell>
        <mxCell id="4SHh40jdGUv13qN_f6i9-33" value="" style="endArrow=none;html=1;rounded=0;align=center;verticalAlign=top;endFill=0;labelBackgroundColor=none;endSize=2;" edge="1" parent="4SHh40jdGUv13qN_f6i9-31" source="4SHh40jdGUv13qN_f6i9-32" target="4SHh40jdGUv13qN_f6i9-34">
          <mxGeometry relative="1" as="geometry" />
        </mxCell>
        <mxCell id="4SHh40jdGUv13qN_f6i9-34" value="AccountPayable" style="ellipse;html=1;fontSize=11;align=left;fillColor=none;points=[];aspect=fixed;resizable=0;verticalAlign=bottom;labelPosition=right;verticalLabelPosition=top;flipH=1;" vertex="1" parent="4SHh40jdGUv13qN_f6i9-31">
          <mxGeometry x="38" y="1" width="8" height="8" as="geometry" />
        </mxCell>
        <mxCell id="4SHh40jdGUv13qN_f6i9-36" value="" style="html=1;rounded=0;verticalAlign=top;align=left;rotation=-180;flipV=1;" vertex="1" parent="1">
          <mxGeometry x="285" y="135" width="10" height="10" as="geometry" />
        </mxCell>
        <mxCell id="4SHh40jdGUv13qN_f6i9-37" value="" style="endArrow=none;html=1;rounded=0;align=center;verticalAlign=top;endFill=0;labelBackgroundColor=none;endSize=2;" edge="1" parent="1" source="4SHh40jdGUv13qN_f6i9-36" target="4SHh40jdGUv13qN_f6i9-38">
          <mxGeometry relative="1" as="geometry" />
        </mxCell>
        <mxCell id="4SHh40jdGUv13qN_f6i9-39" value="AccountPayable" style="edgeLabel;html=1;align=center;verticalAlign=middle;resizable=0;points=[];" vertex="1" connectable="0" parent="4SHh40jdGUv13qN_f6i9-37">
          <mxGeometry x="0.4963" relative="1" as="geometry">
            <mxPoint x="-16" y="15" as="offset" />
          </mxGeometry>
        </mxCell>
        <mxCell id="4SHh40jdGUv13qN_f6i9-38" value="" style="shape=requiredInterface;html=1;fontSize=11;align=center;fillColor=none;points=[];aspect=fixed;resizable=0;verticalAlign=bottom;labelPosition=center;verticalLabelPosition=top;flipH=1;rotation=-180;" vertex="1" parent="1">
          <mxGeometry x="235" y="135" width="5" height="10" as="geometry" />
        </mxCell>
        <mxCell id="4SHh40jdGUv13qN_f6i9-40" value="" style="edgeStyle=none;orthogonalLoop=1;jettySize=auto;html=1;rounded=0;entryX=-0.25;entryY=0.438;entryDx=0;entryDy=0;entryPerimeter=0;dashed=1;endArrow=openThin;endFill=0;endSize=12;" edge="1" parent="1" source="4SHh40jdGUv13qN_f6i9-38" target="4SHh40jdGUv13qN_f6i9-34">
          <mxGeometry width="100" relative="1" as="geometry">
            <mxPoint x="190" y="140" as="sourcePoint" />
            <mxPoint x="290" y="140" as="targetPoint" />
            <Array as="points" />
          </mxGeometry>
        </mxCell>
        <mxCell id="4SHh40jdGUv13qN_f6i9-41" value="&lt;div&gt;&lt;b&gt;Figure 11.46 Example model of a Component, its provided and required Interfaces, and wiring through&lt;/b&gt;&lt;/div&gt;&lt;div&gt;&lt;b&gt;Dependencies&lt;/b&gt;&lt;/div&gt;" style="text;html=1;align=left;verticalAlign=middle;resizable=0;points=[];autosize=1;strokeColor=none;fillColor=none;" vertex="1" parent="1">
          <mxGeometry y="330" width="600" height="40" as="geometry" />
        </mxCell>
      </root>
    </mxGraphModel>
  </diagram>
</mxfile>
